Coordinates
version=1
nRows=14
nColumns=28
inDegrees=yes

Units are S.I. units (second, meters, Newtons, ...)
Angles are in degrees.

endheader
time	pelvis_tilt	pelvis_list	pelvis_rotation	pelvis_tx	pelvis_ty	pelvis_tz	hip_flexion_r	hip_adduction_r	hip_rotation_r	knee_angle_r	ankle_angle_r	subtalar_angle_r	mtp_angle_r	hip_flexion_l	hip_adduction_l	hip_rotation_l	knee_angle_l	socket_flexion	socket_adduction	socket_rotation	socket_tx	socket_ty	socket_tz	foot_flex	lumbar_extension	lumbar_bending	lumbar_rotation
      0.00000000	     -0.66094370	     -5.99928007	     -6.48839647	     -0.86680014	      0.98905531	      0.28523484	    -24.28640308	      7.56762665	      0.06044968	     -4.50745330	     13.55993148	     -2.34928446	      5.42934221	     29.10482754	     -9.83315876	      9.44965741	     -4.57696949	      0.00000000	      0.00000000	      0.00000000	      0.00000000	     -0.00045084	      0.00000000	     -0.65302657	    -10.59814385	      4.83670043	      8.90113509
      0.00416667	     -0.69944435	     -6.04608583	     -6.46790376	     -0.86118723	      0.98838888	      0.28482113	    -24.32270749	      7.57368823	      0.02059876	     -4.92087818	     13.37756761	     -2.44423434	      5.43553327	     28.84758142	     -9.81365217	      9.50114544	     -4.50374271	      0.00000000	      0.00000000	      0.00000000	      0.00000000	     -0.00086509	      0.00000000	     -0.93619478	    -10.49430761	      4.87761583	      8.89034313
      0.00833333	     -0.73568324	     -6.11673529	     -6.45998418	     -0.85539470	      0.98774686	      0.28437682	    -24.31273466	      7.59411873	     -0.03958700	     -5.45282448	     13.20429345	     -2.56941087	      5.46487492	     28.58035413	     -9.81710893	      9.52541578	     -4.44525023	      0.00000000	      0.00000000	      0.00000000	      0.00000000	     -0.00129613	      0.00000000	     -1.24837638	    -10.41279860	      4.94460787	      8.89073251
      0.01250000	     -0.77995858	     -6.19485542	     -6.46657979	     -0.84941823	      0.98706349	      0.28395245	    -24.28137125	      7.61544135	     -0.09804406	     -6.02981126	     13.03638808	     -2.69149119	      5.51490795	     28.30821867	     -9.83448304	      9.56579342	     -4.38758776	      0.00000000	      0.00000000	      0.00000000	      0.00000000	     -0.00180283	      0.00000000	     -1.56719835	    -10.31300759	      5.01786626	      8.90308900
      0.01666667	     -0.83172769	     -6.28915637	     -6.46878432	     -0.84330189	      0.98641020	      0.28344624	    -24.19670893	      7.64945649	     -0.16545028	     -6.71146987	     12.86741797	     -2.82049608	      5.61496581	     28.04361407	     -9.85708975	      9.57938366	     -4.34517131	      0.00000000	      0.00000000	      0.00000000	      0.00000000	     -0.00230880	      0.00000000	     -1.87787594	    -10.22080314	      5.12888925	      8.94201059
      0.02083333	     -0.89760702	     -6.35272539	     -6.47163095	     -0.83697775	      0.98571705	      0.28301366	    -24.14517847	      7.65990443	     -0.18653155	     -7.30605999	     12.69213582	     -2.90926818	      5.67611483	     27.76648510	     -9.86401678	      9.68437780	     -4.27225917	      0.00000000	      0.00000000	      0.00000000	      0.00000000	     -0.00288829	      0.00000000	     -2.20173148	    -10.08268972	      5.17175500	      8.95646606
      0.02500000	     -0.96082007	     -6.42898785	     -6.47160257	     -0.83057327	      0.98504269	      0.28251845	    -24.04586377	      7.67579236	     -0.24459513	     -8.00668262	     12.47365667	     -3.03321784	      5.73990241	     27.49066862	     -9.87334961	      9.75418989	     -4.21576731	      0.00000000	      0.00000000	      0.00000000	      0.00000000	     -0.00352681	      0.00000000	     -2.55343772	     -9.95590484	      5.24560648	      8.97041700
      0.02916667	     -1.03500244	     -6.50134591	     -6.46978274	     -0.82407987	      0.98437629	      0.28201941	    -23.92317149	      7.69047513	     -0.30512361	     -8.72957373	     12.24248777	     -3.15816840	      5.81131094	     27.22652520	     -9.87830174	      9.82219779	     -4.17569421	      0.00000000	      0.00000000	      0.00000000	      0.00000000	     -0.00420040	      0.00000000	     -2.87773459	     -9.81349761	      5.31787656	      8.98475437
      0.03333333	     -1.12764011	     -6.58425441	     -6.46949650	     -0.81757260	      0.98372225	      0.28148693	    -23.71483013	      7.71316332	     -0.42194686	     -9.57623213	     11.97382031	     -3.32414999	      5.95332071	     26.99990279	     -9.88769873	      9.82981509	     -4.18104367	      0.00000000	      0.00000000	      0.00000000	      0.00000000	     -0.00491844	      0.00000000	     -3.20062492	     -9.66212005	      5.41733742	      9.01489721
      0.03750000	     -1.21714339	     -6.61880074	     -6.45556212	     -0.81092116	      0.98309539	      0.28099067	    -23.56845356	      7.69635621	     -0.42571632	    -10.30785610	     11.71542178	     -3.43020503	      6.04117167	     26.74447626	     -9.85848300	      9.97247356	     -4.14616717	      0.00000000	      0.00000000	      0.00000000	      0.00000000	     -0.00564901	      0.00000000	     -3.49603153	     -9.47836607	      5.42626546	      9.01110049
      0.04166667	     -1.30514409	     -6.66077766	     -6.44550537	     -0.80428294	      0.98254014	      0.28044120	    -23.34763621	      7.67845862	     -0.50791061	    -11.16989654	     11.37672670	     -3.59926174	      6.13307816	     26.50384756	     -9.82865065	     10.03670983	     -4.14815293	      0.00000000	      0.00000000	      0.00000000	      0.00000000	     -0.00641979	      0.00000000	     -3.82389081	     -9.31142309	      5.46633529	      8.99835605
      0.04583333	     -2.04243427	     -6.70006525	     -6.48851911	     -0.79745375	      0.98103146	      0.27980348	    -22.29953779	      7.69688312	     -0.85137990	    -12.29340613	     10.58205852	     -3.68753442	      8.91043271	     27.04362338	     -9.82763201	     10.14083049	     -4.33965152	      0.00000000	      0.00000000	      0.00000000	      0.00000000	     -0.00718235	      0.00000000	     -4.03701890	     -8.33877674	      5.61989877	      9.05284539
      0.05000000	     -2.01920306	     -6.68005956	     -6.41842349	     -0.79076797	      0.98074984	      0.27925222	    -22.20127940	      7.63549710	     -0.87149879	    -13.10949149	     10.21259295	     -3.86262076	      8.94556726	     26.68555160	     -9.71240232	     10.24134140	     -4.34297170	      0.00000000	      0.00000000	      0.00000000	      0.00000000	     -0.00792425	      0.00000000	     -4.33210754	     -8.28899487	      5.55770168	      8.97535860
      0.05416667	     -2.00875490	     -6.64733005	     -6.37581304	     -0.78412151	      0.98053837	      0.27870992	    -22.03782966	      7.54498851	     -0.93326957	    -13.99276697	      9.78777970	     -4.06827213	      8.96919655	     26.36369434	     -9.59474007	     10.30882405	     -4.41008246	      0.00000000	      0.00000000	      0.00000000	      0.00000000	     -0.00866962	      0.00000000	     -4.58149330	     -8.21231049	      5.48716442	      8.89517600
